#!OML:ASF H:\Pregnant\Project 1\Capture day 1\Session 1\femalepreg.ASF
:FULLY-SPECIFIED
:DEGREES
528
root 4.17701 3.13519 29.0896 54.2099 -10.3332 291.459
lowerback 20.7201 8.63055 5.28373
upperback 5.22356 13.0157 10.702
thorax -7.12698 6.11272 5.20683
lowerneck -22.9006 -0.472992 0.468368
upperneck 26.7534 -8.10648 21.2313
head 14.2715 -0.897227 7.03226
rclavicle 5.725e-014 8.90555e-014
rhumerus 109.158 80.4968 20.3662
rradius 73.5957
rwrist 18.6448
rhand -60.7516 8.96654
rfingers 7.12502
rthumb -32.8671 341.938
lclavicle 5.725e-014 8.90555e-014
lhumerus 23.0969 -16.5671 60.4277
lradius 93.3443
lwrist 12.5466
lhand -3.74601 36.3893
lfingers 7.12502
lthumb 21.9978 65.1584
rfemur -66.886 4.69326 12.8744
rtibia 111.837
rfoot 23.4082 17.7274
rtoes 3.61374
lfemur -63.5606 -28.0088 -56.16
ltibia 134.028
lfoot -5.60409 -27.8634
ltoes -69.8238
529
root 4.17352 3.14159 29.0679 54.0707 -10.6417 291.555
lowerback 20.8956 8.65406 5.29005
upperback 5.38917 13.0396 10.8024
thorax -7.06134 6.11847 5.29522
lowerneck -23.0372 -0.483716 0.572453
upperneck 26.5808 -8.13482 21.2159
head 14.2275 -0.90063 6.98718
rclavicle 6.04305e-014 -4.45278e-014
rhumerus 109.768 80.1866 20.7239
rradius 73.0359
rwrist 18.782
rhand -60.9871 8.39725
rfingers 7.12502
rthumb -33.0911 341.416
lclavicle 6.04305e-014 -4.45278e-014
lhumerus 22.8977 -16.1184 60.5235
lradius 93.5658
lwrist 12.7902
lhand -3.18275 38.009
lfingers 7.12502
lthumb 22.5386 66.7135
rfemur -66.9862 4.71891 12.6976
rtibia 111.936
rfoot 22.9479 17.7859
rtoes 2.83808
lfemur -63.6318 -27.8688 -56.4476
ltibia 134.07
lfoot -5.52719 -27.9352
ltoes -69.8003
530
root 4.17002 3.14799 29.0462 53.9381 -10.9537 291.645
lowerback 21.0666 8.68223 5.29874
upperback 5.55067 13.0702 10.9031
thorax -6.99774 6.12738 5.38114
lowerneck -23.1741 -0.496067 0.679011
upperneck 26.4088 -8.16784 21.2032
head 14.1848 -0.905732 6.94227
rclavicle 6.36111e-015 8.26944e-014
rhumerus 110.398 79.8779 21.1038
rradius 72.4852
rwrist 18.8592
rhand -61.1886 7.63995
rfingers 7.12502
rthumb -33.2826 340.7
lclavicle 6.36111e-015 8.26944e-014
lhumerus 22.6991 -15.7139 60.6046
lradius 93.7709
lwrist 12.9387
lhand -2.68738 39.1983
lfingers 7.12502
lthumb 23.014 67.8443
rfemur -67.0973 4.75364 12.5204
rtibia 112.03
rfoot 22.5056 17.8403
rtoes 2.13848
lfemur -63.7142 -27.7198 -56.7265
ltibia 134.114
lfoot -5.45389 -28.0052
ltoes -69.7766
531
root 4.16647 3.15436 29.0245 53.8131 -11.2689 291.73
lowerback 21.2311 8.71525 5.30778
upperback 5.70769 13.1075 11.0043
thorax -6.9362 6.13951 5.46617
lowerneck -23.3103 -0.510022 0.789756
upperneck 26.2375 -8.20473 21.1893
head 14.1427 -0.912454 6.89556
rclavicle 1.59028e-014 1.90833e-014
rhumerus 111.001 79.5721 21.457
rradius 71.9419
rwrist 18.8798
rhand -61.3278 6.84468
rfingers 7.12502
rthumb -33.415 339.933
lclavicle 1.59028e-014 1.90833e-014
lhumerus 22.503 -15.3577 60.6702
lradius 93.9468
lwrist 12.9604
lhand -2.25697 39.9981
lfingers 7.12502
lthumb 23.4269 68.5921
rfemur -67.2206 4.79476 12.3421
rtibia 112.121
rfoot 22.0789 17.8922
rtoes 1.50141
lfemur -63.8087 -27.5662 -56.9985
ltibia 134.16
lfoot -5.38205 -28.0736
ltoes -69.7528
532
root 4.16283 3.16063 29.0027 53.6968 -11.5861 291.813
lowerback 21.3878 8.75289 5.31685
upperback 5.8593 13.1511 11.106
thorax -6.87701 6.15478 5.55061
lowerneck -23.4446 -0.525489 0.906329
upperneck 26.0663 -8.24424 21.1699
head 14.1001 -0.920641 6.84502
rclavicle -1.59028e-013 6.36111e-014
rhumerus 111.539 79.2744 21.7441
rradius 71.403
rwrist 18.8546
rhand -61.3936 6.13514
rfingers 7.12502
rthumb -33.4775 339.237
lclavicle -1.59028e-013 6.36111e-014
lhumerus 22.3126 -15.0516 60.7193
lradius 94.0854
lwrist 12.8434
lhand -1.88393 40.4708
lfingers 7.12502
lthumb 23.7847 69.0187
rfemur -67.3576 4.83831 12.1626
rtibia 112.211
rfoot 21.6639 17.943
rtoes 0.902804
lfemur -63.9164 -27.4134 -57.2654
ltibia 134.21
lfoot -5.30881 -28.1406
ltoes -69.7287
533
root 4.15911 3.16674 28.9808 53.5898 -11.904 291.892
lowerback 21.5368 8.79444 5.32812
upperback 6.00415 13.2006 11.2071
thorax -6.82107 6.173 5.63211
lowerneck -23.5745 -0.54255 1.02962
upperneck 25.8939 -8.28542 21.1426
head 14.0552 -0.930259 6.78937
rclavicle 3.18055e-014 -6.36111e-015
rhumerus 111.982 78.9932 21.9362
rradius 70.8653
rwrist 18.7974
rhand -61.3895 5.60074
rfingers 7.12502
rthumb -33.4737 338.702
lclavicle 3.18055e-014 -6.36111e-015
lhumerus 22.1331 -14.796 60.7493
lradius 94.1816
lwrist 12.5925
lhand -1.55707 40.686
lfingers 7.12502
lthumb 24.0982 69.1926
rfemur -67.5082 4.8803 11.9827
rtibia 112.3
rfoot 21.2567 17.9928
rtoes 0.318493
lfemur -64.0371 -27.2666 -57.5286
ltibia 134.264
lfoot -5.2311 -28.206
ltoes -69.7043
534
root 4.15529 3.17262 28.9589 53.4914 -12.2215 291.97
lowerback 21.6806 8.8387 5.34542
upperback 6.14032 13.2557 11.305
thorax -6.77034 6.1938 5.70553
lowerneck -23.6982 -0.561423 1.16013
upperneck 25.7195 -8.32826 21.1069
head 14.0074 -0.941469 6.72828
rclavicle -3.81667e-014 -2.54444e-014
rhumerus 112.317 78.7391 22.0163
rradius 70.3262
rwrist 18.7237
rhand -61.3328 5.26754
rfingers 7.12502
rthumb -33.4197 338.357
lclavicle -3.81667e-014 -2.54444e-014
lhumerus 21.97 -14.5898 60.7558
lradius 94.2324
lwrist 12.2235
lhand -1.26556 40.7093
lfingers 7.12502
lthumb 24.3776 69.1787
rfemur -67.6709 4.91718 11.803
rtibia 112.387
rfoot 20.8554 18.0412
rtoes -0.26806
lfemur -64.1691 -27.1289 -57.7898
ltibia 134.321
lfoot -5.14693 -28.2694
ltoes -69.6795
535
root 4.1514 3.17824 28.937 53.3996 -12.5378 292.047
lowerback 21.8246 8.88397 5.37442
upperback 6.26563 13.3157 11.396
thorax -6.72761 6.21661 5.76293
lowerneck -23.8149 -0.582473 1.29784
upperneck 25.5428 -8.37422 21.0659
head 13.9569 -0.95468 6.66284
rclavicle 0 -1.04958e-013
rhumerus 112.538 78.5217 21.977
rradius 69.7837
rwrist 18.6469
rhand -61.2469 5.11148
rfingers 7.12502
rthumb -33.3381 338.183
lclavicle 0 -1.04958e-013
lhumerus 21.8288 -14.4307 60.7326
lradius 94.2363
lwrist 11.7584
lhand -0.999016 40.5985
lfingers 7.12502
lthumb 24.6332 69.0333
rfemur -67.8419 4.94695 11.6248
rtibia 112.472
rfoot 20.4612 18.0877
rtoes -0.862567
lfemur -64.3085 -27.0006 -58.0501
ltibia 134.38
lfoot -5.05555 -28.33
ltoes -69.6543
536
root 4.14746 3.18357 28.9152 53.3111 -12.8525 292.12
lowerback 21.9758 8.92839 5.42059
upperback 6.37807 13.3798 11.4752
thorax -6.6962 6.24074 5.79545
lowerneck -23.9249 -0.60591 1.44333
upperneck 25.364 -8.42562 21.0246
head 13.9046 -0.970352 6.59473
rclavicle -9.22361e-014 -4.13472e-014
rhumerus 112.645 78.3482 21.8129
rradius 69.2366
rwrist 18.5767
rhand -61.1543 5.0861
rfingers 7.12502
rthumb -33.2501 338.139
lclavicle -9.22361e-014 -4.13472e-014
lhumerus 21.7137 -14.3154 60.6741
lradius 94.1932
lwrist 11.2218
lhand -0.754652 40.3992
lfingers 7.12502
lthumb 24.8674 68.8018
rfemur -68.0158 4.96971 11.4492
rtibia 112.553
rfoot 20.0784 18.1308
rtoes -1.456
lfemur -64.4501 -26.8787 -58.3105
ltibia 134.441
lfoot -4.95803 -28.3866
ltoes -69.6284
537
root 4.14346 3.18866 28.8936 53.2223 -13.1659 292.191
lowerback 22.1412 8.97024 5.48743
upperback 6.47623 13.4471 11.5386
thorax -6.6792 6.26546 5.79619
lowerneck -24.0292 -0.631917 1.59699
upperneck 25.1833 -8.48522 20.989
head 13.8518 -0.988969 6.52611
rclavicle -6.04305e-014 -4.45278e-014
rhumerus 112.641 78.2208 21.5211
rradius 68.6847
rwrist 18.5168
rhand -61.0715 5.15025
rfingers 7.12502
rthumb -33.1713 338.186
lclavicle -6.04305e-014 -4.45278e-014
lhumerus 21.6259 -14.2391 60.5769
lradius 94.1048
lwrist 10.6366
lhand -0.536275 40.1445
lfingers 7.12502
lthumb 25.0766 68.5181
rfemur -68.1858 4.9869 11.277
rtibia 112.629
rfoot 19.7132 18.1689
rtoes -2.03178
lfemur -64.5881 -26.7581 -58.5711
ltibia 134.502
lfoot -4.85649 -28.4381
ltoes -69.602
538
root 4.1394 3.19358 28.8722 53.129 -13.4783 292.258
lowerback 22.3263 9.00856 5.57574
upperback 6.55998 13.5168 11.5837
thorax -6.67858 6.29025 5.76127
lowerneck -24.13 -0.660697 1.75986
upperneck 25.0003 -8.55591 20.9651
head 13.7998 -1.01102 6.45887
rclavicle 5.40694e-014 8.90555e-014
rhumerus 112.527 78.1365 21.0965
rradius 68.1287
rwrist 18.4671
rhand -61.0065 5.27016
rfingers 7.12502
rthumb -33.1095 338.293
lclavicle 5.40694e-014 8.90555e-014
lhumerus 21.5652 -14.1958 60.4423
lradius 93.9749
lwrist 10.0239
lhand -0.353675 39.8568
lfingers 7.12502
lthumb 25.2516 68.2058
rfemur -68.3451 5.00144 11.1089
rtibia 112.698
rfoot 19.3725 18.1997
rtoes -2.57182
lfemur -64.7168 -26.6326 -58.8317
ltibia 134.562
lfoot -4.75433 -28.4837
ltoes -69.575
539
root 4.1353 3.19842 28.8512 53.0275 -13.7898 292.321
lowerback 22.5338 9.04344 5.68225
upperback 6.63104 13.5886 11.6111
thorax -6.69447 6.31488 5.69297
lowerneck -24.2293 -0.692424 1.93175
upperneck 24.8134 -8.63918 20.9571
head 13.7489 -1.03675 6.39444
rclavicle -9.22361e-014 2.8625e-014
rhumerus 112.304 78.0874 20.5399
rradius 67.5712
rwrist 18.4235
rhand -60.9598 5.43953
rfingers 7.12502
rthumb -33.065 338.453
lclavicle -9.22361e-014 2.8625e-014
lhumerus 21.5288 -14.1768 60.2776
lradius 93.8084
lwrist 9.40168
lhand -0.217336 39.5494
lfingers 7.12502
lthumb 25.3822 67.8799
rfemur -68.4868 5.01745 10.9453
rtibia 112.759
rfoot 19.062 18.2204
rtoes -3.062
lfemur -64.8312 -26.4947 -59.0912
ltibia 134.62
lfoot -4.65566 -28.5227
ltoes -69.5474
540
root 4.13114 3.2033 28.8305 52.9153 -14.1006 292.378
lowerback 22.763 9.07572 5.80118
upperback 6.69245 13.6622 11.6233
thorax -6.72496 6.33935 5.59763
lowerneck -24.3295 -0.72731 2.11183
upperneck 24.6202 -8.73546 20.9672
head 13.699 -1.06622 6.33369
rclavicle 4.45278e-014 -6.36111e-015
rhumerus 111.981 78.0626 19.8615
rradius 67.0159
rwrist 18.3819
rhand -60.9288 5.64633
rfingers 7.12502
rthumb -33.0356 338.654
lclavicle 4.45278e-014 -6.36111e-015
lhumerus 21.5134 -14.172 60.0941
lradius 93.61
lwrist 8.78522
lhand -0.136345 39.2292
lfingers 7.12502
lthumb 25.4598 67.5486
rfemur -68.6061 5.03885 10.7861
rtibia 112.812
rfoot 18.7863 18.2283
rtoes -3.49548
lfemur -64.9286 -26.3387 -59.3478
ltibia 134.675
lfoot -4.56414 -28.5552
ltoes -69.5195
541
root 4.12693 3.20832 28.8102 52.7915 -14.4105 292.43
lowerback 23.0098 9.10687 5.92499
upperback 6.74788 13.7377 11.6253
thorax -6.76681 6.3639 5.48525
lowerneck -24.4317 -0.765688 2.29677
upperneck 24.4181 -8.84356 20.9964
head 13.6491 -1.09931 6.27756
rclavicle 8.90555e-014 -8.5875e-014
rhumerus 111.574 78.0508 19.0853
rradius 66.467
rwrist 18.3397
rhand -60.9089 5.87743
rfingers 7.12502
rthumb -33.0167 338.881
lclavicle 8.90555e-014 -8.5875e-014
lhumerus 21.5143 -14.1699 59.9065
lradius 93.3829
lwrist 8.18869
lhand -0.112242 38.8998
lfingers 7.12502
lthumb 25.4829 67.216
rfemur -68.7008 5.06934 10.6309
rtibia 112.856
rfoot 18.5484 18.2217
rtoes -3.87403
lfemur -65.0088 -26.1607 -59.5996
ltibia 134.727
lfoot -4.4827 -28.5819
ltoes -69.4912
